<svg height="24" width="24" xmlns="http://www.w3.org/2000/svg"><g transform="translate(0 -1028.4)"><path d="m-.0000002 1035v9.4l12 8v-9.4l-12-8z" fill="#e67e22"/><path d="m24 1035v9.4l-12 8v-9.4z" fill="#f39c12"/><path d="m8 1029.7-8 5.3 12 8 12-8-8-5.3z" fill="#f1c40f"/><path d="m5.3333 1032.4v2.6c0 2.2 2.9848 4 6.6667 4 3.682 0 6.667-1.8 6.667-4v-2.6h-13.334z" fill="#f39c12"/><path d="m5.3333 1032.4v2.6c0 2.2 2.9848 4 6.6667 4v-6.6z" fill="#e67e22"/><path d="m16 9a3.5 3 0 1 1 -7 0 3.5 3 0 1 1 7 0z" fill="#f1c40f" transform="matrix(1.9048 0 0 1.3333 -11.81 1020.4)"/></g></svg>